<?xml version="1.0" encoding="utf-8"?>
<!-- Generator: Adobe Illustrator 26.5.0, SVG Export Plug-In . SVG Version: 6.00 Build 0)  -->
<svg version="1.1" id="Layer_1" xmlns="http://www.w3.org/2000/svg" xmlns:xlink="http://www.w3.org/1999/xlink" x="0px" y="0px"
	 viewBox="0 0 133.9 45.9" style="enable-background:new 0 0 133.9 45.9;" xml:space="preserve">
<style type="text/css">
	.st0{fill:#000000;}
</style>
<g>
	<path class="st0" d="M22.7,13.1L22.7,13.1c-0.2-1.1-0.8-1.7-1.5-1.3c-0.9,0.5-1.4,0.8-2.3,1.3c-0.7,0.4-1.2,1.5-1.2,2.7
		c-0.7,9.6-1.5,19.1-2.4,28.7c-0.1,0.7,0.3,1.4,0.8,1.4c1.2,0,1.8,0,3,0c0.4,0,0.7-0.6,0.6-1.3c-0.1-0.9-0.1-1.3-0.1-2.2
		c-0.1-1.4,0.5-2.6,1.3-2.7c0.7-0.1,1-0.1,1.7-0.2c0.8-0.1,1.5,1.1,1.6,2.6c0.1,1,0.1,1.5,0.2,2.4c0,0.8,0.4,1.4,0.8,1.4h3
		c0.5,0,0.8-0.9,0.6-1.8C26.8,33.8,24.8,23.5,22.7,13.1z M21.4,35.3c-1,0.2-1.9-1.1-2-2.9c0-0.2,0-0.4,0-0.6C19.3,30,20,28.3,21,28
		c1-0.3,1.9,1,2,2.9c0,0.3,0,0.4,0,0.6C23.2,33.5,22.4,35.1,21.4,35.3z"/>
	<path class="st0" d="M13,37.5c0-0.4-0.1-0.8-0.2-1.2c-0.4-1.6-1.1-2.9-2.1-3.5c-2.3-1.5-3.4-2.1-5.5-2.8c-0.6-0.3-1.3-1.2-0.6-2.7
		c0.2-0.5,0.7-1.2,1.5-1.4c1.3-0.3,1.9,0.6,2,1.9c0,0.5,0,0.8,0.1,1.3c0,0.5,0.3,0.8,0.7,0.6c1.2-0.6,1.8-0.9,3-1.4
		c0.4-0.2,0.7-0.8,0.6-1.4c0-0.7-0.1-1-0.1-1.7c-0.2-2.9-1.2-4.7-2.7-4.9c0,0-7.4-1.5-9.4,7.2C-1,33,2.7,34.4,2.7,34.4
		c2.1,0.8,3.2,1.4,5.5,3c0.7,0.5,0.7,2.9,0.1,3.6c-0.3,0.3-0.7,0.5-1.1,0.5c-0.1,0-0.1,0-0.2,0c-1,0.1-1.8-0.7-1.8-1.9
		c0-0.5,0-0.7,0-1.2c0-0.5-0.3-0.8-0.7-0.7c-1.2,0.4-1.8,0.5-3,0.9c-0.4,0.1-0.7,0.5-0.7,1v1.1c0,2.8,2.3,5.1,5.1,5.1h2.3
		c2,0,3.6-1.5,4.4-3.8c0.4-1.2,0.6-2.7,0.5-4.2C13.1,37.7,13.1,37.6,13,37.5z"/>
	<path class="st0" d="M46.7,4L46.7,4c-0.1-0.8-0.4-1.4-0.8-1.3c-1.4,0.3-2.2,0.5-3.6,0.9c-0.4,0.1-0.7,0.8-0.7,1.6
		c-0.2,4.8-0.2,7.2-0.4,12c0,1.5-0.6,2.7-1.3,2.8s-1.3-0.8-1.5-2.2C37.9,13.2,37.6,11,37,6.5c-0.1-0.8-0.4-1.2-0.8-1.1
		c-1.4,0.5-2.1,0.7-3.5,1.3C32.3,6.8,32,7.5,32,8.3c-0.1,12-0.1,23.9-0.2,35.9c0,0.9,0.4,1.7,0.8,1.7c1.2,0,1.8,0,3.1,0
		c0.4,0,0.7-0.7,0.7-1.6c-0.3-5.1-0.4-7.6-0.7-12.7c-0.1-1.7,0.5-3.2,1.3-3.4c0.1,0,0.2,0,0.3,0c0.8-0.1,1.6,1.2,1.6,3
		c0.2,5.2,0.4,7.9,0.6,13.1c0,0.9,0.4,1.6,0.8,1.6h1.4c0.4,0,0.7-0.7,0.7-1.7c-0.2-5.4-0.4-8-0.6-13.4c-0.1-1.8,0.5-3.4,1.3-3.5
		c0.1,0,0.2,0,0.3,0c0.8-0.1,1.6,1.3,1.6,3.2c0.2,5.5,0.3,8.2,0.5,13.7c0,0.9,0.4,1.7,0.8,1.7h3.1c0.4,0,0.8-0.9,0.7-1.9
		C49.1,30.6,47.9,17.3,46.7,4z"/>
	<path class="st0" d="M117,14.5c-0.4-0.5-0.8-0.9-1.2-1.1l0,0c-2.8-1.6-4.1-2.4-7-3.8c-0.8-0.4-1.5,0.6-1.6,2.2
		c-0.6,10.9-1.3,21.8-1.9,32.6c0,0.8,0.2,1.5,0.7,1.5c1.3,0,1.9,0,3.2,0c0.4,0,0.8-0.6,0.8-1.4c0.2-2.7,0.2-4,0.4-6.8
		c0.1-1.5,0.8-2.6,1.6-2.5c0.2,0,0.3,0.1,0.6,0.1c0.8,0.1,1.4,1.4,1.3,2.8c-0.2,2.5-0.2,3.8-0.4,6.4c0,0.7,0.2,1.3,0.7,1.3h3.2
		c0.4,0,0.8-0.5,0.8-1.2c0.1-1.8,0.2-2.7,0.3-4.5c0.1-2.3-0.4-4.6-1.5-6.2c-0.2-0.4-0.4-0.5-0.6-0.9c-0.4-0.6-0.3-1.7,0.1-2.1
		c0,0,0,0,0,0c1.7-1.4,2.8-3.9,2.9-7c0-0.6,0.1-0.9,0.1-1.5C119.4,19.7,118.5,16.4,117,14.5z M114.5,24.9c-0.1,1.4-0.8,2.4-1.6,2.1
		c-0.2-0.1-0.3-0.1-0.5-0.2c-0.8-0.2-1.4-1.7-1.3-3.2c0.1-1.3,0.1-1.9,0.2-3.2c0.1-1.5,0.8-2.5,1.6-2.1c0.2,0.1,0.3,0.2,0.5,0.2
		c0.8,0.4,1.3,1.8,1.3,3.2l0,0C114.6,23.1,114.6,23.7,114.5,24.9z"/>
	<path class="st0" d="M133.9,45c-1.6-6.5-2.7-13-3.5-19.6c-0.1-0.9-0.6-1.9-1.2-2.4c-0.8-0.7-1.2-1.1-2.1-1.7
		c-0.6-0.5-1.2-0.3-1.3,0.5c-1.8,7.6-3.5,15.2-5.2,22.7c-0.2,0.7,0.2,1.4,0.6,1.4h3c0.4,0,0.8-0.5,0.8-1c0-0.7,0-1.1,0.1-1.8
		c0.1-1.1,0.7-1.9,1.5-1.8c0.7,0.1,1,0.1,1.7,0.2c0.8,0.1,1.4,1,1.4,1.9c0,0.6,0,0.9,0,1.5c0,0.5,0.3,0.9,0.7,0.9c1.2,0,1.8,0,3,0
		C133.6,45.9,134,45.5,133.9,45L133.9,45z M129.3,36.6L129.3,36.6c0,1.2-0.9,2-1.9,1.8c-1-0.2-1.7-1.5-1.7-2.9c0-0.2,0-0.3,0-0.5
		c0.1-1.4,0.9-2.2,1.9-1.8c1,0.4,1.7,1.7,1.6,3C129.3,36.3,129.3,36.4,129.3,36.6z"/>
	<path class="st0" d="M102.6,44.1c-0.8-11.9-1.5-23.7-2.3-35.6l0,0C100.2,7,99.7,5.8,99,5.6c-1-0.3-1.5-0.5-2.5-0.8
		c-0.7-0.2-1.4,0.6-1.6,2c-2,12.3-4,24.7-5.8,37c-0.2,1.1,0.1,2.1,0.6,2.1c1.2,0,1.8,0,3,0c0.4,0,0.8-0.7,0.8-1.6
		c0-1.2,0.1-1.7,0.1-2.9c0.1-1.8,0.8-3.2,1.6-3.2c0.7,0,1,0.1,1.7,0.1c0.8,0,1.4,1.5,1.3,3.2c-0.1,1.1-0.1,1.7-0.1,2.8
		c0,0.9,0.2,1.6,0.6,1.6h3C102.3,45.9,102.7,45,102.6,44.1z M98.5,29.2c-0.1,2.2-1,3.9-2.1,3.8c-1-0.1-1.8-2-1.7-4.3
		c0-0.3,0-0.5,0-0.8c0.1-2.3,1-4,2.1-3.8c1,0.2,1.8,2.1,1.7,4.3l0,0C98.5,28.8,98.5,28.9,98.5,29.2z"/>
	<path class="st0" d="M62.4,13.3L62.4,13.3c-1,0-1.5,0.1-2.5,0.1c-0.3,0-0.6-0.6-0.6-1.4c0-0.1,0-0.2,0-0.3c0-0.8,0.3-1.4,0.6-1.4
		c1-0.1,1.5-0.1,2.5-0.1c0.2,0,0.3-0.3,0.3-0.7c0-0.5,0-0.8,0-1.3c0-0.4-0.1-0.7-0.3-0.7c-1,0-1.5,0.1-2.5,0.1
		c-0.3,0-0.6-0.6-0.6-1.4c0-0.1,0-0.2,0-0.3c0-0.8,0.3-1.4,0.6-1.4c1-0.1,1.5-0.1,2.5-0.1c0.2,0,0.3-0.3,0.3-0.7c0-1.2,0-1.8,0-3
		c0-0.4-0.2-0.8-0.3-0.7c-2.9,0.1-4.4,0.3-7.3,0.6c-0.1,0.1-0.3,0.4-0.3,0.7c0,2.1,0.1,3.2,0.1,5.2l0.1,5.6c0,2.1,0.1,3.2,0.1,5.2
		c0,0.3,0.1,0.6,0.3,0.7c2.8-0.2,4.2-0.3,7-0.4c0.2,0.1,0.3-0.3,0.3-0.7c0-1.2,0-1.8,0-3C62.7,13.6,62.6,13.3,62.4,13.3z"/>
	<path class="st0" d="M84.8,1.8L84.8,1.8c-1.4-0.3-2.2-0.4-3.6-0.6c-0.4-0.1-0.7,0.5-0.8,1.4c-0.5,5-0.7,7.5-1.2,12.5
		c-0.1,1.6-0.8,2.7-1.5,2.7s-1.3-1.3-1.4-2.9C76.1,9.7,76,7.2,75.7,2.1c0-0.9-0.4-1.5-0.8-1.6c-1.5-0.1-2.2-0.2-3.7-0.2
		c-0.4,0-0.7,0.7-0.8,1.6c-0.8,14-1.6,28-2.4,42.1c-0.1,1.1,0.3,2,0.7,2h3.1c0.4,0,0.7-0.8,0.8-1.8c0.1-5.8,0.1-8.7,0.1-14.6
		c0-2,0.7-3.6,1.5-3.5c0.1,0,0.2,0,0.3,0c0.8,0,1.5,1.7,1.5,3.6c-0.1,5.8-0.1,8.7-0.2,14.5c0,1,0.3,1.8,0.7,1.8c0.5,0,0.8,0,1.4,0
		c0.4,0,0.8-0.8,0.8-1.8c0.1-5.7,0.2-8.6,0.3-14.3c0-2,0.8-3.5,1.6-3.4c0.1,0,0.2,0,0.3,0c0.8,0.1,1.5,1.7,1.4,3.6
		c-0.2,5.7-0.2,8.5-0.4,14.2c0,1,0.3,1.8,0.7,1.8c1.2,0,1.8,0,3.1,0c0.4,0,0.8-0.9,0.8-1.9c-0.3-13.5-0.6-27-0.9-40.5
		C85.6,2.6,85.2,1.9,84.8,1.8z"/>
</g>
</svg>
