<?xml version="1.0" encoding="UTF-8"?>
<svg id="Layer_1" data-name="Layer 1" xmlns="http://www.w3.org/2000/svg" viewBox="0 0 133.92 45.94">
  <defs>
    <style>
      .cls-1 {
        fill: #065e4d;
      }
    </style>
  </defs>
  <path class="cls-1" d="M84.86,1.82c-1.44-.27-2.17-.39-3.62-.6-.38-.06-.73,.52-.81,1.36-.48,4.98-.72,7.48-1.19,12.49-.15,1.59-.77,2.71-1.47,2.66-.7-.05-1.28-1.27-1.37-2.89-.29-5.1-.43-7.66-.74-12.78-.05-.87-.37-1.53-.76-1.56-1.46-.12-2.19-.16-3.66-.22-.4-.02-.74,.65-.79,1.55-.84,14.02-1.63,28.05-2.37,42.08-.06,1.07,.28,2.02,.72,2.02h3.08c.4,0,.74-.8,.75-1.79,.06-5.82,.08-8.73,.14-14.55,.02-1.98,.71-3.57,1.55-3.54,.12,0,.19,0,.31,.01,.84,.03,1.49,1.66,1.46,3.63-.09,5.79-.14,8.68-.23,14.46-.02,.98,.3,1.78,.7,1.78,.55,0,.82,0,1.37,0,.4,0,.75-.79,.77-1.77,.12-5.74,.18-8.61,.3-14.35,.04-1.95,.75-3.5,1.58-3.44,.12,0,.19,.01,.31,.02,.83,.06,1.47,1.67,1.42,3.61-.15,5.68-.22,8.51-.37,14.19-.03,.97,.28,1.75,.68,1.75,1.23,0,1.85,0,3.08,0,.44,0,.81-.9,.79-1.92-.27-13.51-.57-27.02-.91-40.53-.02-.88-.33-1.59-.73-1.66Z"/>
  <path class="cls-1" d="M46.72,3.96c-.08-.85-.43-1.42-.82-1.33-1.43,.33-2.15,.51-3.57,.89-.38,.1-.67,.78-.7,1.6-.17,4.83-.25,7.24-.4,12.01-.05,1.51-.59,2.72-1.28,2.85-.69,.13-1.32-.82-1.51-2.25-.57-4.53-.86-6.77-1.44-11.23-.1-.75-.44-1.21-.81-1.09-1.4,.48-2.1,.74-3.48,1.28-.38,.15-.66,.85-.67,1.64-.08,11.97-.14,23.95-.2,35.92,0,.9,.38,1.68,.82,1.68,1.23,0,1.85,0,3.08,0,.4,0,.7-.7,.65-1.57-.26-5.1-.39-7.64-.65-12.74-.09-1.73,.5-3.25,1.32-3.38,.12-.02,.18-.03,.3-.05,.82-.13,1.55,1.22,1.64,3.01,.25,5.24,.37,7.87,.62,13.11,.04,.89,.4,1.62,.81,1.62h1.37c.4,0,.7-.74,.66-1.65-.23-5.36-.35-8.04-.58-13.4-.08-1.82,.53-3.39,1.35-3.49,.12-.02,.18-.02,.31-.04,.83-.1,1.56,1.34,1.63,3.2,.21,5.48,.31,8.22,.52,13.69,.04,.93,.39,1.69,.8,1.69h3.08c.44,0,.75-.91,.67-1.94-1.13-13.35-2.3-26.69-3.51-40.03Z"/>
  <path class="cls-1" d="M115.73,13.38c-2.75-1.62-4.15-2.37-7-3.75-.8-.39-1.54,.61-1.63,2.22-.64,10.87-1.27,21.75-1.91,32.62-.05,.8,.24,1.46,.65,1.46,1.27,0,1.91,0,3.18,0,.4,0,.77-.61,.81-1.37,.17-2.7,.25-4.05,.41-6.75,.09-1.51,.82-2.63,1.62-2.49,.22,.04,.33,.06,.55,.09,.8,.14,1.38,1.41,1.29,2.84-.16,2.55-.24,3.83-.4,6.38-.04,.71,.25,1.29,.65,1.29h3.18c.4,0,.76-.53,.8-1.18,.11-1.8,.16-2.7,.27-4.5,.14-2.32-.43-4.61-1.52-6.22-.24-.36-.36-.54-.6-.9-.4-.6-.33-1.7,.13-2.07,.01-.01,.02-.02,.03-.03,1.66-1.36,2.75-3.88,2.94-6.96,.04-.59,.05-.89,.09-1.49,.17-2.9-.75-6.13-2.31-8.08-.39-.49-.81-.87-1.24-1.12Zm-1.01,8.47c-.08,1.22-.11,1.82-.19,3.04-.09,1.43-.8,2.38-1.6,2.13-.22-.07-.33-.1-.55-.17-.8-.24-1.37-1.66-1.28-3.17,.08-1.28,.12-1.93,.2-3.21,.09-1.51,.81-2.46,1.6-2.11,.22,.1,.33,.15,.55,.24,.79,.36,1.35,1.81,1.26,3.24Z"/>
  <path class="cls-1" d="M100.34,8.49c-.1-1.45-.65-2.66-1.34-2.9-.98-.34-1.47-.51-2.45-.82-.7-.22-1.36,.61-1.59,2.02-2.03,12.34-3.96,24.69-5.8,37.05-.16,1.06,.15,2.1,.63,2.1,1.19,0,1.78,0,2.97,0,.4,0,.76-.73,.8-1.64,.05-1.15,.08-1.73,.13-2.88,.08-1.81,.81-3.23,1.62-3.18,.69,.04,1.04,.07,1.73,.11,.81,.05,1.4,1.51,1.31,3.24-.06,1.11-.09,1.66-.14,2.77-.04,.87,.25,1.57,.65,1.57h2.97c.48,0,.88-.92,.81-1.87-.77-11.86-1.54-23.72-2.31-35.58Zm-1.8,19.98c-.02,.3-.02,.45-.04,.74-.11,2.2-1.04,3.89-2.07,3.77-1.03-.11-1.78-2.04-1.68-4.31,.01-.31,.02-.46,.03-.77,.1-2.27,1.03-3.97,2.07-3.78,1.04,.19,1.79,2.14,1.68,4.34Z"/>
  <path class="cls-1" d="M22.68,13.15c-.23-1.14-.86-1.69-1.52-1.33-.92,.5-1.38,.76-2.29,1.29-.65,.38-1.16,1.51-1.24,2.72-.7,9.56-1.45,19.12-2.36,28.66-.07,.74,.32,1.44,.79,1.44,1.19,0,1.78,0,2.97,0,.4,0,.7-.57,.65-1.27-.06-.89-.08-1.34-.14-2.23-.09-1.4,.49-2.6,1.29-2.69,.68-.07,1.02-.11,1.71-.18,.8-.08,1.53,1.08,1.62,2.59,.06,.96,.09,1.45,.15,2.41,.05,.75,.41,1.37,.81,1.37h2.97c.48,0,.77-.89,.6-1.8-1.94-10.34-3.94-20.67-6.04-30.98Zm-1.25,22.15c-1.01,.18-1.91-1.12-2.02-2.9-.01-.24-.02-.36-.04-.6-.11-1.78,.61-3.48,1.61-3.78,1-.3,1.91,1,2.03,2.9,.02,.26,.02,.38,.04,.64,.12,1.89-.61,3.56-1.62,3.74Z"/>
  <path class="cls-1" d="M133.9,45.03c-1.56-6.47-2.66-13.05-3.54-19.64-.12-.88-.61-1.87-1.19-2.38-.82-.71-1.24-1.05-2.08-1.73-.6-.48-1.15-.27-1.34,.52-1.82,7.56-3.55,15.15-5.25,22.74-.16,.7,.15,1.39,.63,1.39h2.97c.4,0,.75-.45,.78-1,.03-.71,.05-1.06,.09-1.77,.05-1.11,.74-1.92,1.53-1.81,.67,.09,1.01,.14,1.68,.24,.79,.11,1.4,.98,1.37,1.94-.02,.61-.03,.92-.05,1.53-.01,.48,.3,.87,.7,.87,1.19,0,1.78,0,2.97,0,.48,0,.82-.44,.71-.91Zm-4.58-8.44c-.04,1.23-.86,2.03-1.84,1.79s-1.73-1.54-1.66-2.92c0-.19,.01-.28,.02-.47,.07-1.38,.9-2.18,1.85-1.78,.95,.4,1.69,1.73,1.65,2.96,0,.17,0,.25-.01,.42Z"/>
  <path class="cls-1" d="M13.08,37.85h0c0-.13-.02-.26-.03-.4-.04-.41-.11-.81-.19-1.2-.37-1.63-1.13-2.91-2.1-3.55-2.29-1.49-3.4-2.06-5.52-2.76-.61-.28-1.35-1.24-.61-2.66,.25-.48,.65-1.19,1.47-1.37,1.34-.33,1.92,.57,1.98,1.88,.02,.52,.04,.77,.06,1.29,.02,.54,.35,.83,.72,.64,1.19-.58,1.78-.86,2.98-1.4,.38-.17,.66-.8,.63-1.41-.04-.67-.06-1.01-.09-1.68-.16-2.86-1.25-4.66-2.71-4.92h0S2.25,18.78,.26,27.48c-1.25,5.49,2.43,6.88,2.43,6.88,2.12,.8,3.23,1.42,5.52,3.02,.67,.47,.72,2.93,.07,3.59-.28,.29-.65,.47-1.07,.53-.07,.01-.11,.02-.18,.03-.96,.14-1.77-.71-1.81-1.89-.01-.46-.02-.69-.04-1.16-.02-.48-.34-.78-.72-.67-1.21,.37-1.81,.55-3,.94-.38,.12-.69,.55-.69,.95v1.12c0,2.82,2.29,5.11,5.11,5.11h2.29c1.95,0,3.59-1.46,4.39-3.85,.41-1.24,.61-2.71,.52-4.23h0Z"/>
  <path class="cls-1" d="M62.43,13.34c-.99,.03-1.48,.06-2.47,.11-.34,.02-.62-.6-.63-1.37,0-.12,0-.17,0-.29-.01-.78,.26-1.42,.59-1.44,.99-.06,1.49-.08,2.48-.12,.17,0,.3-.33,.3-.72,0-.53,0-.8,0-1.33,0-.39-.14-.7-.31-.69-1,.04-1.5,.07-2.49,.13-.34,.02-.62-.59-.63-1.36,0-.12,0-.17,0-.29-.01-.78,.26-1.42,.6-1.45,1-.07,1.5-.09,2.5-.14,.17,0,.31-.33,.3-.72,0-1.19-.01-1.79-.02-2.98,0-.42-.17-.75-.35-.68-2.91,.14-4.37,.26-7.27,.62-.15,.06-.26,.37-.26,.72,.04,2.1,.06,3.15,.11,5.25l.11,5.59c.04,2.1,.06,3.15,.11,5.25,0,.35,.13,.64,.28,.67,2.82-.22,4.23-.3,7.05-.39,.18,.05,.34-.29,.33-.71,0-1.19-.01-1.79-.02-2.98,0-.39-.14-.7-.31-.7Z"/>
</svg>